<?xml version="1.0" standalone="no"?>
<!DOCTYPE svg PUBLIC "-//W3C//DTD SVG 20010904//EN"
 "http://www.w3.org/TR/2001/REC-SVG-20010904/DTD/svg10.dtd">
<svg version="1.0" xmlns="http://www.w3.org/2000/svg"
 width="200.000000pt" height="200.000000pt" viewBox="0 0 200.000000 200.000000"
 preserveAspectRatio="xMidYMid meet">
<metadata>
Created by potrace 1.11, written by Peter Selinger 2001-2013
</metadata>
<g transform="translate(0.000000,200.000000) scale(0.100000,-0.100000)"
fill="#000000" stroke="none">
<path d="M333 1218 c-54 -56 -83 -132 -83 -219 0 -42 7 -95 15 -118 28 -80 96
-154 124 -136 8 4 2 18 -18 40 -88 100 -89 311 -1 422 18 23 19 43 1 43 -4 0
-21 -15 -38 -32z"/>
<path d="M1627 1244 c-3 -4 7 -25 23 -48 85 -125 79 -323 -13 -423 -19 -21
-19 -23 -2 -29 23 -9 72 44 107 114 19 39 23 63 22 133 0 77 -4 94 -33 153
-37 76 -83 120 -104 100z"/>
<path d="M1034 1200 c-56 -22 -71 -99 -29 -148 l25 -30 -30 -30 c-37 -37 -42
-100 -11 -131 31 -31 98 -45 144 -31 94 28 116 105 50 169 l-38 36 28 27 c27
26 35 66 21 103 -15 37 -106 57 -160 35z m100 -36 c22 -22 20 -77 -4 -99 -18
-16 -20 -16 -54 4 -67 42 -58 111 14 111 16 0 36 -7 44 -16z m-24 -186 c43
-30 54 -49 46 -81 -11 -44 -86 -54 -118 -15 -22 25 -23 66 -2 96 19 28 33 28
74 0z"/>
<path d="M468 1113 c-22 -5 -24 -31 -3 -39 12 -5 15 -27 15 -109 0 -82 -3
-104 -15 -109 -35 -13 -11 -26 50 -26 49 0 65 3 65 14 0 7 -9 16 -20 19 -18 5
-20 14 -20 95 0 97 5 107 57 118 51 10 63 -13 63 -122 0 -77 -3 -94 -15 -94
-8 0 -15 -7 -15 -15 0 -12 13 -15 60 -15 47 0 60 3 60 15 0 8 -7 15 -15 15
-12 0 -15 18 -15 100 0 100 0 101 27 111 62 23 83 -13 83 -142 0 -55 -3 -69
-15 -69 -8 0 -15 -7 -15 -15 0 -12 13 -15 60 -15 47 0 60 3 60 15 0 8 -7 15
-15 15 -12 0 -15 15 -15 78 -1 168 -39 212 -146 167 -32 -13 -38 -13 -57 0
-28 19 -70 19 -109 -1 -28 -15 -32 -15 -40 0 -9 15 -34 19 -70 9z"/>
<path d="M1288 1113 c-22 -5 -24 -31 -3 -39 12 -5 15 -27 15 -110 0 -86 -3
-104 -15 -104 -8 0 -15 -7 -15 -15 0 -12 14 -15 65 -15 49 0 65 3 65 14 0 7
-9 16 -20 19 -18 5 -20 14 -20 96 0 90 0 91 30 106 70 36 90 12 90 -111 0 -77
-3 -94 -15 -94 -8 0 -15 -7 -15 -15 0 -12 14 -15 65 -15 40 0 65 4 65 11 0 6
-9 13 -19 16 -17 4 -20 16 -23 115 -3 101 -5 111 -27 129 -28 23 -72 24 -113
3 -28 -15 -32 -15 -40 0 -9 15 -34 19 -70 9z"/>
</g>
</svg>
